<svg xmlns="http://www.w3.org/2000/svg" height="48" viewBox="0 -960 960 960" width="48" fill="white"><path d="M728-144 584-288q-14 10-31 15t-33 5q-66 0-113-47t-47-113q0-14 3-27.5t11-30.5L144-720h112l176 176q12-1 24.5-3t23.5-4q66 0 113 47t47 113q0 33-12.5 62t-35.5 53l136 132h-93ZM221-144l265-264q-24-9-42.5-28.5T418-480q-26 26-61 41t-73 15q-66 0-113-47t-47-113q0-66 47-113t113-47q38 0 73 15t61 41l264-265h94L266-267q-24 24-53 35.5T144-220v76h77ZM284-560q33 0 56.5-23.5T364-640q0-33-23.5-56.5T284-720q-33 0-56.5 23.5T204-640q0 33 23.5 56.5T284-560Zm392 392q33 0 56.5-23.5T756-248q0-33-23.5-56.5T676-328q-33 0-56.5 23.5T596-248q0 33 23.5 56.5T676-168Z"/></svg>