<svg xmlns="http://www.w3.org/2000/svg" height="48" viewBox="0 -960 960 960" width="48" fill="white"><path d="m794-110-58-58q-11 5-23 9.5t-25 7.5v-83q7-4 13-9.5t11.5-12L688-281q-40 46-92.5 76T480-168q-80-6-146-51.5T246-320h87q17 37 50.5 61.5T480-234q51 0 94.5-27t67.5-73l-45-45q-18 25-46 39.5T480-325q-81 0-137.5-57.5T286-520v-19l-72-72q-8 23-11 47t-3 49q0 105 57 184.5T440-235v115h80v-111q5 0 10-.5t10-.5l200 200 54-52ZM520-410l-80-80v-230q0-17 11.5-28.5T480-760q17 0 28.5 11.5T520-720v310ZM448-692 108-922l45-52 748 748-46 52-258-258q-19 6-36.5 7.5T528-422v-36l-80-80v-182q0-33 23.5-56.5T480-800q33 0 56.5 23.5T560-720v180l-80-80v-20h40v-10h-64l-8 2ZM480-480Z"/></svg>