<svg xmlns="http://www.w3.org/2000/svg" height="48" viewBox="0 -960 960 960" width="48" fill="white"><path d="M280-360v-240h160l200-200v640L440-360H280Zm80-80h114l106 106v-292L474-520H360v80Zm540 50-57-57q22-33 34.5-70.5T890-600q0-86-50.5-155.5T708-847l-57 58q57 28 93 82.5t36 106.5q0 32-8.5 61.5T756-484l58 58q34-45 53-99t19-115H900q-14 96-59.5 174.5T740-199l-58-57q41-36 64.5-84.5T769-424l-57-57q-29 55-79.5 88T520-360h-29l-61-61q-5-5-11-9t-13-6L79-743l56-57 802 802-57 57-173-171-67 67v-169l-200 200H200v-240h43l-64-64H80v400h240l240 240v-161l58 58q-36 42-83.5 68.5T480-500q-74 0-136.5-35T247-630l-57 57q54 80 137.5 126.5T480-400Zm-294-80Zm284-282Z"/></svg>